{
  "accessors": [
    {
      "bufferView": 2,
      "componentType": 5126,
      "count": 3634,
      "max": [
        0.2736310064792633,
        1.0,
        0.6585739850997925
      ],
      "min": [
        -0.2736310064792633,
        -1.0,
        -0.6585739850997925
      ],
      "type": "VEC3"
    },
    {
      "bufferView": 2,
      "byteOffset": 43608,
      "componentType": 5126,
      "count": 3634,
      "max": [
        1.0,
        1.0,
        1.0
      ],
      "min": [
        -1.0,
        -1.0,
        -1.0
      ],
      "type": "VEC3"
    },
    {
      "bufferView": 3,
      "componentType": 5126,
      "count": 3634,
      "max": [
        1.0,
        1.0,
        1.0,
        1.0
      ],
      "min": [
        -1.0,
        -1.0,
        -1.0,
        -1.0
      ],
      "type": "VEC4"
    },
    {
      "bufferView": 1,
      "componentType": 5126,
      "count": 3634,
      "max": [
        0.963109016418457,
        0.9809799790382385
      ],
      "min": [
        0.016422899439930916,
        0.00861039012670517
      ],
      "type": "VEC2"
    },
    {
      "bufferView": 0,
      "componentType": 5125,
      "count": 16668,
      "type": "SCALAR"
    },
    {
      "bufferView": 2,
      "byteOffset": 87216,
      "componentType": 5126,
      "count": 408,
      "max": [
        0.1951719969511032,
        0.9366409778594971,
        0.1951719969511032
      ],
      "min": [
        -0.1951719969511032,
        0.3512519896030426,
        -0.1951729953289032
      ],
      "type": "VEC3"
    },
    {
      "bufferView": 2,
      "byteOffset": 92112,
      "componentType": 5126,
      "count": 408,
      "max": [
        0.9997456669807434,
        0.9497141242027283,
        0.9997456669807434
      ],
      "min": [
        -0.9997456669807434,
        -0.9791191220283508,
        -0.9997456669807434
      ],
      "type": "VEC3"
    },
    {
      "bufferView": 3,
      "byteOffset": 58144,
      "componentType": 5126,
      "count": 408,
      "max": [
        0.9999504685401917,
        0.3514097034931183,
        0.9999188780784607,
        1.0
      ],
      "min": [
        -0.9999968409538269,
        -0.5530368685722351,
        -0.9999914765357971,
        1.0
      ],
      "type": "VEC4"
    },
    {
      "bufferView": 1,
      "byteOffset": 29072,
      "componentType": 5126,
      "count": 408,
      "max": [
        0.3158240020275116,
        0.2803339958190918
      ],
      "min": [
        0.03317280113697052,
        0.03366659954190254
      ],
      "type": "VEC2"
    },
    {
      "bufferView": 0,
      "byteOffset": 66672,
      "componentType": 5125,
      "count": 2208,
      "type": "SCALAR"
    }
  ],
  "asset": {
    "extras": {
      "author": "Lux87 (https://sketchfab.com/lux87)",
      "license": "CC-BY-4.0 (http://creativecommons.org/licenses/by/4.0/)",
      "source": "https://sketchfab.com/3d-models/old-victorian-rubber-stamp-be402a8d73c74fd6b9ca5acc057a208d",
      "title": "Old Victorian Rubber Stamp"
    },
    "generator": "Sketchfab-15.49.0",
    "version": "2.0"
  },
  "bufferViews": [
    {
      "buffer": 0,
      "byteLength": 75504,
      "name": "floatBufferViews",
      "target": 34963
    },
    {
      "buffer": 0,
      "byteLength": 32336,
      "byteOffset": 75504,
      "byteStride": 8,
      "name": "floatBufferViews",
      "target": 34962
    },
    {
      "buffer": 0,
      "byteLength": 97008,
      "byteOffset": 107840,
      "byteStride": 12,
      "name": "floatBufferViews",
      "target": 34962
    },
    {
      "buffer": 0,
      "byteLength": 64672,
      "byteOffset": 204848,
      "byteStride": 16,
      "name": "floatBufferViews",
      "target": 34962
    }
  ],
  "buffers": [
    {
      "byteLength": 269520,
      "uri": "scene.bin"
    }
  ],
  "images": [
    {
      "uri": "textures/StampMAT_baseColor.jpeg"
    },
    {
      "uri": "textures/StampMAT_metallicRoughness.png"
    },
    {
      "uri": "textures/StampMAT_normal.jpeg"
    }
  ],
  "materials": [
    {
      "doubleSided": true,
      "name": "StampMAT",
      "normalTexture": {
        "index": 2
      },
      "occlusionTexture": {
        "index": 1
      },
      "pbrMetallicRoughness": {
        "baseColorTexture": {
          "index": 0
        },
        "metallicRoughnessTexture": {
          "index": 1
        }
      }
    }
  ],
  "meshes": [
    {
      "name": "defaultMaterial",
      "primitives": [
        {
          "attributes": {
            "NORMAL": 1,
            "POSITION": 0,
            "TANGENT": 2,
            "TEXCOORD_0": 3
          },
          "indices": 4,
          "material": 0,
          "mode": 4
        }
      ]
    },
    {
      "name": "defaultMaterial",
      "primitives": [
        {
          "attributes": {
            "NORMAL": 6,
            "POSITION": 5,
            "TANGENT": 7,
            "TEXCOORD_0": 8
          },
          "indices": 9,
          "material": 0,
          "mode": 4
        }
      ]
    }
  ],
  "nodes": [
    {
      "children": [
        1
      ],
      "matrix": [
        1.0,
        0.0,
        0.0,
        0.0,
        0.0,
        2.220446049250313e-16,
        -1.0,
        0.0,
        0.0,
        1.0,
        2.220446049250313e-16,
        0.0,
        0.0,
        0.0,
        0.0,
        1.0
      ],
      "name": "Sketchfab_model"
    },
    {
      "children": [
        2,
        4
      ],
      "matrix": [
        1.0,
        0.0,
        0.0,
        0.0,
        0.0,
        -4.371139006309477e-08,
        0.999999999999999,
        0.0,
        0.0,
        -0.999999999999999,
        -4.371139006309477e-08,
        0.0,
        0.0,
        0.0,
        0.0,
        1.0
      ],
      "name": "Collada visual scene group"
    },
    {
      "children": [
        3
      ],
      "name": "Cube"
    },
    {
      "mesh": 0,
      "name": "defaultMaterial"
    },
    {
      "children": [
        5
      ],
      "name": "Cube.001"
    },
    {
      "mesh": 1,
      "name": "defaultMaterial"
    }
  ],
  "samplers": [
    {
      "magFilter": 9729,
      "minFilter": 9987,
      "wrapS": 10497,
      "wrapT": 10497
    }
  ],
  "scene": 0,
  "scenes": [
    {
      "name": "Sketchfab_Scene",
      "nodes": [
        0
      ]
    }
  ],
  "textures": [
    {
      "sampler": 0,
      "source": 0
    },
    {
      "sampler": 0,
      "source": 1
    },
    {
      "sampler": 0,
      "source": 2
    }
  ]
}
